# xmcd
#
# Track frame offsets:
#	150
#	17133
#	35868
#	54925
#	70745
#	85966
#	96968
#	114396
#	128989
#	148992
#	164749
#	178797
#	191037
#	205101
#
# Disc length: 2983 seconds
#
# Revision: 1
# Processed by: cddbd v1.5.2PL0 Copyright (c) Steve Scherf et al.
# Submitted via: audiograbber 1.83.01
#
DISCID=d20ba50e
DTITLE=JonesTM - HC200749
DYEAR=2007
DGENRE=Country
TTITLE0=Tim McGraw - Dear Santa
TTITLE1=Kenny Chesney - Shiftwork
TTITLE2=Sugarland - Little Wood Guitar
TTITLE3=Jypsi - I Don't Love You Like That
TTITLE4=Joe Nichols - It Ain't No Crime [Radio Edit]
TTITLE5=Toby Keith - Rockin' Around The Christmas Tree
TTITLE6=Carolyn Dawn Johnson - I Wouldn't Want Christmas Any Other Way
TTITLE7=Joss Stone - All I Want For Christmas
TTITLE8=Kirk Franklin - Declarartion (This Is It!)
TTITLE9=Trin-i-tee 5:7 - The Christmas Song
TTITLE10=Trin-i-tee 5:7 - O Holy Night
TTITLE11=Yolanda Adams - What A Wonderful Time [Album Version]
TTITLE12=Yolanda Adams - Jingle Bells [Album Version]
TTITLE13=Euge Groove - Mr. Groove [Radio Edit]
EXTD=
EXTT0=
EXTT1=
EXTT2=
EXTT3=
EXTT4=
EXTT5=
EXTT6=
EXTT7=
EXTT8=
EXTT9=
EXTT10=
EXTT11=
EXTT12=
EXTT13=
PLAYORDER=
